<svg width="68" height="64" viewBox="0 0 68 64" fill="none" xmlns="http://www.w3.org/2000/svg">
<path d="M4.89877 34.4324C4.82031 33.5327 4.77847 32.6278 4.77847 31.7072C4.77918 24.387 7.39468 17.3078 12.1535 11.7455C16.9124 6.18327 23.5016 2.50384 30.7335 1.37042C37.9654 0.237 45.3644 1.72412 51.5968 5.56377C57.8291 9.40341 62.485 15.343 64.7252 22.312C66.9654 29.281 66.6425 36.821 63.8148 43.573C60.9871 50.325 55.8406 55.8449 49.3028 59.1377C42.765 62.4305 35.266 63.2798 28.1575 61.5323C21.0489 59.7848 14.7983 55.5556 10.5324 49.607" stroke="#272525" stroke-width="2" stroke-linecap="round" stroke-linejoin="round"/>
<path d="M18.3315 26.1259C18.6558 25.5666 19.1168 25.0988 19.6714 24.7664C20.2259 24.434 20.8558 24.2478 21.5019 24.2253C22.148 24.2029 22.7893 24.3448 23.3656 24.6379C23.9419 24.931 24.4343 25.3656 24.7967 25.901" stroke="#272525" stroke-width="2" stroke-linecap="round" stroke-linejoin="round"/>
<path d="M52.6664 26.1259C52.3421 25.5666 51.881 25.0988 51.3265 24.7664C50.772 24.434 50.1421 24.2478 49.496 24.2253C48.8499 24.2029 48.2086 24.3448 47.6323 24.6379C47.056 24.931 46.5636 25.3656 46.2012 25.901" stroke="#272525" stroke-width="2" stroke-linecap="round" stroke-linejoin="round"/>
<path d="M38.0935 48.7491C37.1996 49.3751 36.1035 49.6433 35.0216 49.5008C33.9396 49.3584 32.9504 48.8156 32.249 47.9796C31.5476 47.1435 31.185 46.075 31.2328 44.9848C31.2805 43.8945 31.7352 42.8618 32.507 42.0903C32.8848 41.71 33.33 41.4031 33.8199 41.1854C33.0525 40.841 32.4011 40.282 31.9445 39.5756C31.4878 38.8693 31.2453 38.0458 31.2463 37.2047C31.245 36.4079 31.4622 35.6261 31.8742 34.9441C32.2862 34.2621 32.8774 33.7062 33.5833 33.3368C34.2893 32.9674 35.083 32.7986 35.8782 32.8488C36.6734 32.899 37.4396 33.1663 38.0935 33.6216" stroke="#272525" stroke-width="2" stroke-linecap="round" stroke-linejoin="round"/>
<path d="M17.709 34.8822C16.5699 34.278 15.2375 34.1506 14.0046 34.5283C12.7717 34.9059 11.7391 35.7575 11.1338 36.8961C10.8173 37.4621 10.6499 38.0993 10.6474 38.7478C10.6431 38.0989 10.4739 37.4617 10.1557 36.8961C9.66602 35.9761 8.89382 35.2376 7.95284 34.7895C7.01185 34.3415 5.95184 34.2075 4.92894 34.4072C3.90604 34.607 2.97435 35.13 2.27111 35.8992C1.56786 36.6684 1.13025 37.6431 1.02273 38.6798C0.703647 41.7869 3.81595 43.7118 5.87166 45.4798C7.4409 46.8399 9.03631 48.1842 10.6579 49.5128C12.0806 48.3306 13.4929 47.1363 14.8948 45.9297C15.941 45.0509 16.9348 44.1669 17.9339 43.2568C19.2782 42.0275 20.3714 40.9081 20.2878 38.9623C20.2455 38.1177 19.9859 37.2984 19.5341 36.5836C19.0823 35.8688 18.4537 35.2828 17.709 34.8822Z" fill="#2D44B0" stroke="#272525" stroke-width="2" stroke-linecap="round" stroke-linejoin="round"/>
</svg>
